{
    "asset": {
        "version": "2.0",
        "generator": "Open Asset Import Library (assimp v5.2.cf7d3637)"
    },
    "extensionsUsed": [
        "KHR_materials_volume",
        "FB_ngon_encoding"
    ],
    "accessors": [
        {
            "bufferView": 0,
            "byteOffset": 0,
            "componentType": 5126,
            "count": 5574,
            "type": "VEC3",
            "max": [
                1387.7119140625,
                1150.729248046875,
                4416.71142578125
            ],
            "min": [
                -1399.3740234375,
                591.5390625,
                -4415.20849609375
            ]
        },
        {
            "bufferView": 1,
            "byteOffset": 0,
            "componentType": 5126,
            "count": 5574,
            "type": "VEC3",
            "max": [
                0.9999978542327881,
                1.0,
                1.0
            ],
            "min": [
                -1.0,
                -0.999999463558197,
                -1.0
            ]
        },
        {
            "bufferView": 2,
            "byteOffset": 0,
            "componentType": 5125,
            "count": 5574,
            "type": "SCALAR",
            "max": [
                5573
            ],
            "min": [
                0
            ]
        },
        {
            "bufferView": 3,
            "byteOffset": 0,
            "componentType": 5126,
            "count": 16140,
            "type": "VEC3",
            "max": [
                1524.8564453125,
                2784.8408203125,
                4798.44140625
            ],
            "min": [
                -1524.85546875,
                590.237060546875,
                -4798.4404296875
            ]
        },
        {
            "bufferView": 4,
            "byteOffset": 0,
            "componentType": 5126,
            "count": 16140,
            "type": "VEC3",
            "max": [
                1.0,
                1.0,
                1.0
            ],
            "min": [
                -1.0,
                -1.0,
                -1.0
            ]
        },
        {
            "bufferView": 5,
            "byteOffset": 0,
            "componentType": 5125,
            "count": 16140,
            "type": "SCALAR",
            "max": [
                16139
            ],
            "min": [
                0
            ]
        },
        {
            "bufferView": 6,
            "byteOffset": 0,
            "componentType": 5126,
            "count": 2106,
            "type": "VEC3",
            "max": [
                1341.4873046875,
                787.70361328125,
                -720.4766845703125
            ],
            "min": [
                -1307.28515625,
                620.373779296875,
                -3784.51416015625
            ]
        },
        {
            "bufferView": 7,
            "byteOffset": 0,
            "componentType": 5126,
            "count": 2106,
            "type": "VEC3",
            "max": [
                0.668919563293457,
                0.9999759197235107,
                0.0000073118908403557729
            ],
            "min": [
                -0.6583102345466614,
                -0.9999988079071045,
                -0.000006147595286165597
            ]
        },
        {
            "bufferView": 8,
            "byteOffset": 0,
            "componentType": 5125,
            "count": 2106,
            "type": "SCALAR",
            "max": [
                2105
            ],
            "min": [
                0
            ]
        }
    ],
    "buffers": [
        {
            "byteLength": 666960,
            "uri": "result.bin"
        }
    ],
    "bufferViews": [
        {
            "buffer": 0,
            "byteOffset": 0,
            "byteLength": 66888,
            "target": 34962
        },
        {
            "buffer": 0,
            "byteOffset": 66888,
            "byteLength": 66888,
            "target": 34962
        },
        {
            "buffer": 0,
            "byteOffset": 133776,
            "byteLength": 22296,
            "target": 34963
        },
        {
            "buffer": 0,
            "byteOffset": 156072,
            "byteLength": 193680,
            "target": 34962
        },
        {
            "buffer": 0,
            "byteOffset": 349752,
            "byteLength": 193680,
            "target": 34962
        },
        {
            "buffer": 0,
            "byteOffset": 543432,
            "byteLength": 64560,
            "target": 34963
        },
        {
            "buffer": 0,
            "byteOffset": 607992,
            "byteLength": 25272,
            "target": 34962
        },
        {
            "buffer": 0,
            "byteOffset": 633264,
            "byteLength": 25272,
            "target": 34962
        },
        {
            "buffer": 0,
            "byteOffset": 658536,
            "byteLength": 8424,
            "target": 34963
        }
    ],
    "materials": [
        {
            "name": "RT",
            "pbrMetallicRoughness": {
                "baseColorFactor": [
                    0.0,
                    0.0,
                    0.0,
                    1.0
                ],
                "metallicFactor": 0.0
            }
        },
        {
            "name": "EY5",
            "pbrMetallicRoughness": {
                "baseColorFactor": [
                    0.8352941870689392,
                    0.8784314393997192,
                    0.9019608497619629,
                    1.0
                ],
                "metallicFactor": 0.0,
                "roughnessFactor": 0.7762635350227356
            }
        },
        {
            "name": "%%%DEFAULT",
            "pbrMetallicRoughness": {
                "baseColorFactor": [
                    0.30000001192092898,
                    0.30000001192092898,
                    0.30000001192092898,
                    1.0
                ],
                "metallicFactor": 0.0
            }
        }
    ],
    "meshes": [
        {
            "name": "0",
            "primitives": [
                {
                    "mode": 4,
                    "material": 0,
                    "indices": 2,
                    "attributes": {
                        "POSITION": 0,
                        "NORMAL": 1
                    }
                },
                {
                    "mode": 4,
                    "material": 1,
                    "indices": 5,
                    "attributes": {
                        "POSITION": 3,
                        "NORMAL": 4
                    }
                },
                {
                    "mode": 4,
                    "material": 2,
                    "indices": 8,
                    "attributes": {
                        "POSITION": 6,
                        "NORMAL": 7
                    }
                }
            ]
        }
    ],
    "nodes": [
        {
            "name": "<3DSRoot>",
            "matrix": [
                1.0,
                0.0,
                0.0,
                0.0,
                0.0,
                0.0,
                -1.0,
                0.0,
                0.0,
                1.0,
                0.0,
                0.0,
                0.0,
                0.0,
                0.0,
                1.0
            ],
            "children": [
                1,
                2,
                3,
                4
            ]
        },
        {
            "name": "Camera01",
            "matrix": [
                1.0,
                -0.0,
                0.0,
                0.0,
                0.0,
                1.0,
                0.0,
                0.0,
                0.0,
                0.0,
                1.0,
                0.0,
                786.599609375,
                -9611.3916015625,
                1190.7459716796876,
                1.0
            ]
        },
        {
            "name": "Light01",
            "matrix": [
                1.0,
                0.0,
                0.0,
                0.0,
                0.0,
                1.0,
                0.0,
                0.0,
                0.0,
                0.0,
                1.0,
                0.0,
                6013.3701171875,
                -7863.27734375,
                17877.171875,
                1.0
            ]
        },
        {
            "name": "Light03",
            "matrix": [
                1.0,
                0.0,
                0.0,
                0.0,
                0.0,
                1.0,
                0.0,
                0.0,
                0.0,
                0.0,
                1.0,
                0.0,
                -17333.1015625,
                -4834.0859375,
                -1193.9393310546876,
                1.0
            ]
        },
        {
            "name": "Object46",
            "matrix": [
                1.0,
                0.0,
                0.0,
                0.0,
                0.0,
                1.0,
                -8.742277657347586e-8,
                0.0,
                0.0,
                8.742277657347586e-8,
                1.0,
                0.0,
                -8090.6806640625,
                2535.34033203125,
                447.66046142578127,
                1.0
            ],
            "mesh": 0
        }
    ],
    "scenes": [
        {
            "nodes": [
                0
            ]
        }
    ],
    "scene": 0
}