{
    "asset" : {
        "generator" : "Khronos glTF Blender I/O v1.8.19",
        "version" : "2.0"
    },
    "scene" : 0,
    "scenes" : [
        {
            "name" : "Scene",
            "nodes" : [
                0
            ]
        }
    ],
    "nodes" : [
        {
            "mesh" : 0,
            "name" : "Object46",
            "rotation" : [
                0.7071068286895752,
                0,
                0,
                0.7071067094802856
            ],
            "translation" : [
                3.091953754425049,
                11.13779067993164,
                -5.105368614196777
            ]
        }
    ],
    "materials" : [
        {
            "doubleSided" : true,
            "name" : "RT.001",
            "pbrMetallicRoughness" : {
                "baseColorFactor" : [
                    0,
                    0,
                    0,
                    1
                ],
                "metallicFactor" : 0
            }
        },
        {
            "doubleSided" : true,
            "name" : "EY5.001",
            "pbrMetallicRoughness" : {
                "baseColorFactor" : [
                    0.8352940082550049,
                    0.8784310221672058,
                    0.9019610285758972,
                    1
                ],
                "metallicFactor" : 0,
                "roughnessFactor" : 0.7762635350227356
            }
        },
        {
            "doubleSided" : true,
            "name" : "%%%DEFAULT.001",
            "pbrMetallicRoughness" : {
                "baseColorFactor" : [
                    0.30000001192092896,
                    0.30000001192092896,
                    0.30000001192092896,
                    1
                ],
                "metallicFactor" : 0
            }
        }
    ],
    "meshes" : [
        {
            "name" : "Object46",
            "primitives" : [
                {
                    "attributes" : {
                        "POSITION" : 0,
                        "NORMAL" : 1
                    },
                    "indices" : 2,
                    "material" : 0
                },
                {
                    "attributes" : {
                        "POSITION" : 3,
                        "NORMAL" : 4
                    },
                    "indices" : 5,
                    "material" : 1
                },
                {
                    "attributes" : {
                        "POSITION" : 6,
                        "NORMAL" : 7
                    },
                    "indices" : 8,
                    "material" : 2
                }
            ]
        }
    ],
    "accessors" : [
        {
            "bufferView" : 0,
            "componentType" : 5126,
            "count" : 5574,
            "max" : [
                1.387465000152588,
                1.0939861536026,
                4.411370754241943
            ],
            "min" : [
                -1.3996210098266602,
                0.5347951650619507,
                -4.420550346374512
            ],
            "type" : "VEC3"
        },
        {
            "bufferView" : 1,
            "componentType" : 5126,
            "count" : 5574,
            "type" : "VEC3"
        },
        {
            "bufferView" : 2,
            "componentType" : 5123,
            "count" : 5574,
            "type" : "SCALAR"
        },
        {
            "bufferView" : 3,
            "componentType" : 5126,
            "count" : 16140,
            "max" : [
                1.5246100425720215,
                1.0952881574630737,
                4.794602870941162
            ],
            "min" : [
                -1.525101661682129,
                -1.0993165969848633,
                -4.802279949188232
            ],
            "type" : "VEC3"
        },
        {
            "bufferView" : 4,
            "componentType" : 5126,
            "count" : 16140,
            "type" : "VEC3"
        },
        {
            "bufferView" : 5,
            "componentType" : 5123,
            "count" : 16140,
            "type" : "SCALAR"
        },
        {
            "bufferView" : 6,
            "componentType" : 5126,
            "count" : 2106,
            "max" : [
                1.3412408828735352,
                1.0651520490646362,
                3.7806754112243652
            ],
            "min" : [
                -1.3075313568115234,
                0.8978220224380493,
                0.7166374325752258
            ],
            "type" : "VEC3"
        },
        {
            "bufferView" : 7,
            "componentType" : 5126,
            "count" : 2106,
            "type" : "VEC3"
        },
        {
            "bufferView" : 8,
            "componentType" : 5123,
            "count" : 2106,
            "type" : "SCALAR"
        }
    ],
    "bufferViews" : [
        {
            "buffer" : 0,
            "byteLength" : 66888,
            "byteOffset" : 0
        },
        {
            "buffer" : 0,
            "byteLength" : 66888,
            "byteOffset" : 66888
        },
        {
            "buffer" : 0,
            "byteLength" : 11148,
            "byteOffset" : 133776
        },
        {
            "buffer" : 0,
            "byteLength" : 193680,
            "byteOffset" : 144924
        },
        {
            "buffer" : 0,
            "byteLength" : 193680,
            "byteOffset" : 338604
        },
        {
            "buffer" : 0,
            "byteLength" : 32280,
            "byteOffset" : 532284
        },
        {
            "buffer" : 0,
            "byteLength" : 25272,
            "byteOffset" : 564564
        },
        {
            "buffer" : 0,
            "byteLength" : 25272,
            "byteOffset" : 589836
        },
        {
            "buffer" : 0,
            "byteLength" : 4212,
            "byteOffset" : 615108
        }
    ],
    "buffers" : [
        {
            "byteLength" : 619320,
            "uri" : "data:application/octet-stream;base64,"
        }
    ]
}
