{
  "accessors": [
    {
      "bufferView": 3,
      "componentType": 5126,
      "count": 35532,
      "max": [
        0.19101205468177795,
        0.8643394708633423,
        0.1692793220281601
      ],
      "min": [
        -0.19101272523403168,
        -3.702447517769796e-17,
        -0.1615116149187088
      ],
      "type": "VEC3"
    },
    {
      "bufferView": 3,
      "byteOffset": 426384,
      "componentType": 5126,
      "count": 35532,
      "max": [
        1.0,
        1.0,
        1.0
      ],
      "min": [
        -1.0,
        -1.0,
        -1.0
      ],
      "type": "VEC3"
    },
    {
      "bufferView": 4,
      "componentType": 5126,
      "count": 35532,
      "max": [
        1.0,
        1.0,
        1.0,
        1.0
      ],
      "min": [
        -1.0,
        -1.0,
        -1.0,
        -1.0
      ],
      "type": "VEC4"
    },
    {
      "bufferView": 2,
      "componentType": 5126,
      "count": 35532,
      "max": [
        0.9989497065544128,
        1.491037368774414
      ],
      "min": [
        0.0017571747303009033,
        0.0036997199058532715
      ],
      "type": "VEC2"
    },
    {
      "bufferView": 1,
      "componentType": 5125,
      "count": 176664,
      "type": "SCALAR"
    },
    {
      "bufferView": 5,
      "componentType": 5126,
      "count": 6,
      "max": [
        1.0,
        1.9952029364752685e-23,
        2.3841853646899835e-07,
        0.0,
        0.0,
        1.0000001192092896,
        0.0,
        0.0,
        0.0,
        1.0,
        1.0,
        0.0,
        0.03750002756714821,
        0.0,
        0.6672306060791016,
        1.0
      ],
      "min": [
        1.0,
        0.0,
        -3.2584136988589307e-07,
        0.0,
        -3.2584136988589307e-07,
        6.123234262925839e-17,
        -1.0,
        0.0,
        -2.3841853646899835e-07,
        0.0,
        6.123234262925839e-17,
        0.0,
        -0.012499970383942127,
        -0.5865400433540344,
        -0.10278468579053879,
        1.0
      ],
      "type": "MAT4"
    },
    {
      "bufferView": 0,
      "componentType": 5123,
      "count": 35532,
      "type": "VEC4"
    },
    {
      "bufferView": 4,
      "byteOffset": 568512,
      "componentType": 5126,
      "count": 35532,
      "max": [
        1.0,
        0.0,
        0.0,
        0.0
      ],
      "min": [
        1.0,
        0.0,
        0.0,
        0.0
      ],
      "type": "VEC4"
    },
    {
      "bufferView": 6,
      "componentType": 5126,
      "count": 810,
      "max": [
        27.96666717529297
      ],
      "min": [
        0.0
      ],
      "type": "SCALAR"
    },
    {
      "bufferView": 7,
      "componentType": 5126,
      "count": 810,
      "max": [
        2.1886080503463745e-08,
        0.08069062232971191,
        0.058617398142814636
      ],
      "min": [
        1.5366822481155396e-08,
        0.08069044351577759,
        0.05861738324165344
      ],
      "type": "VEC3"
    },
    {
      "bufferView": 6,
      "byteOffset": 3240,
      "componentType": 5126,
      "count": 539,
      "max": [
        27.96666717529297
      ],
      "min": [
        0.0
      ],
      "type": "SCALAR"
    },
    {
      "bufferView": 7,
      "byteOffset": 9720,
      "componentType": 5126,
      "count": 539,
      "max": [
        1.0000001192092896,
        1.0,
        1.0000001192092896
      ],
      "min": [
        0.9999998211860657,
        0.9999999403953552,
        0.9999998807907104
      ],
      "type": "VEC3"
    },
    {
      "bufferView": 6,
      "byteOffset": 5396,
      "componentType": 5126,
      "count": 829,
      "max": [
        27.96666717529297
      ],
      "min": [
        0.0
      ],
      "type": "SCALAR"
    },
    {
      "bufferView": 8,
      "componentType": 5126,
      "count": 829,
      "max": [
        0.7071068286895752,
        0.7071036100387573,
        0.7071036100387573,
        0.7071067690849304
      ],
      "min": [
        -0.49701911211013794,
        -0.49860042333602905,
        -0.49860042333602905,
        -0.49701908230781555
      ],
      "type": "VEC4"
    },
    {
      "bufferView": 6,
      "byteOffset": 8712,
      "componentType": 5126,
      "count": 276,
      "max": [
        27.96666717529297
      ],
      "min": [
        0.0
      ],
      "type": "SCALAR"
    },
    {
      "bufferView": 7,
      "byteOffset": 16188,
      "componentType": 5126,
      "count": 276,
      "max": [
        1.0,
        1.0,
        1.0
      ],
      "min": [
        0.9999999403953552,
        1.0,
        0.9999999403953552
      ],
      "type": "VEC3"
    },
    {
      "bufferView": 6,
      "byteOffset": 9816,
      "componentType": 5126,
      "count": 837,
      "max": [
        27.96666717529297
      ],
      "min": [
        0.0
      ],
      "type": "SCALAR"
    },
    {
      "bufferView": 8,
      "byteOffset": 13264,
      "componentType": 5126,
      "count": 837,
      "max": [
        4.390856634084668e-40,
        0.25879791378974915,
        1.6388353696094455e-39,
        1.0
      ],
      "min": [
        -1.7980480985291025e-40,
        -0.25879791378974915,
        -1.6358618142681482e-39,
        0.9659314751625061
      ],
      "type": "VEC4"
    },
    {
      "bufferView": 6,
      "byteOffset": 13164,
      "componentType": 5126,
      "count": 17,
      "max": [
        27.96666717529297
      ],
      "min": [
        0.0
      ],
      "type": "SCALAR"
    },
    {
      "bufferView": 7,
      "byteOffset": 19500,
      "componentType": 5126,
      "count": 17,
      "max": [
        -0.03750000149011612,
        0.03462183475494385,
        0.10278468579053879
      ],
      "min": [
        -0.03750000149011612,
        0.030621834099292755,
        0.10278468579053879
      ],
      "type": "VEC3"
    },
    {
      "bufferView": 6,
      "byteOffset": 13232,
      "componentType": 5126,
      "count": 10,
      "max": [
        27.96666717529297
      ],
      "min": [
        0.0
      ],
      "type": "SCALAR"
    },
    {
      "bufferView": 7,
      "byteOffset": 19704,
      "componentType": 5126,
      "count": 10,
      "max": [
        0.012499995529651642,
        0.03462183475494385,
        0.10278468579053879
      ],
      "min": [
        0.012499995529651642,
        0.030621834099292755,
        0.10278468579053879
      ],
      "type": "VEC3"
    }
  ],
  "animations": [
    {
      "channels": [
        {
          "sampler": 0,
          "target": {
            "node": 9,
            "path": "translation"
          }
        },
        {
          "sampler": 1,
          "target": {
            "node": 9,
            "path": "scale"
          }
        },
        {
          "sampler": 2,
          "target": {
            "node": 9,
            "path": "rotation"
          }
        },
        {
          "sampler": 3,
          "target": {
            "node": 8,
            "path": "scale"
          }
        },
        {
          "sampler": 4,
          "target": {
            "node": 8,
            "path": "rotation"
          }
        },
        {
          "sampler": 5,
          "target": {
            "node": 10,
            "path": "translation"
          }
        },
        {
          "sampler": 6,
          "target": {
            "node": 11,
            "path": "translation"
          }
        }
      ],
      "name": "Armature|Action",
      "samplers": [
        {
          "input": 8,
          "interpolation": "LINEAR",
          "output": 9
        },
        {
          "input": 10,
          "interpolation": "LINEAR",
          "output": 11
        },
        {
          "input": 12,
          "interpolation": "LINEAR",
          "output": 13
        },
        {
          "input": 14,
          "interpolation": "LINEAR",
          "output": 15
        },
        {
          "input": 16,
          "interpolation": "LINEAR",
          "output": 17
        },
        {
          "input": 18,
          "interpolation": "LINEAR",
          "output": 19
        },
        {
          "input": 20,
          "interpolation": "LINEAR",
          "output": 21
        }
      ]
    }
  ],
  "asset": {
    "extras": {
      "author": "Lillya (https://sketchfab.com/Lillya)",
      "license": "CC-BY-4.0 (http://creativecommons.org/licenses/by/4.0/)",
      "source": "https://sketchfab.com/3d-models/electric-fan-c27f71e432b84353a245fb9b65dcdbf2",
      "title": "Electric Fan"
    },
    "generator": "Sketchfab-12.66.0",
    "version": "2.0"
  },
  "bufferViews": [
    {
      "buffer": 0,
      "byteLength": 284256,
      "byteStride": 8,
      "name": "shortBufferViews",
      "target": 34962
    },
    {
      "buffer": 0,
      "byteLength": 706656,
      "byteOffset": 284256,
      "name": "floatBufferViews",
      "target": 34963
    },
    {
      "buffer": 0,
      "byteLength": 284256,
      "byteOffset": 990912,
      "byteStride": 8,
      "name": "floatBufferViews",
      "target": 34962
    },
    {
      "buffer": 0,
      "byteLength": 852768,
      "byteOffset": 1275168,
      "byteStride": 12,
      "name": "floatBufferViews",
      "target": 34962
    },
    {
      "buffer": 0,
      "byteLength": 1137024,
      "byteOffset": 2127936,
      "byteStride": 16,
      "name": "floatBufferViews",
      "target": 34962
    },
    {
      "buffer": 0,
      "byteLength": 384,
      "byteOffset": 3264960,
      "name": "floatBufferViews"
    },
    {
      "buffer": 0,
      "byteLength": 13272,
      "byteOffset": 3265344,
      "name": "floatBufferViews"
    },
    {
      "buffer": 0,
      "byteLength": 19824,
      "byteOffset": 3278616,
      "byteStride": 12,
      "name": "floatBufferViews"
    },
    {
      "buffer": 0,
      "byteLength": 26656,
      "byteOffset": 3298440,
      "byteStride": 16,
      "name": "floatBufferViews"
    }
  ],
  "buffers": [
    {
      "byteLength": 3325096,
      "uri": "scene.bin"
    }
  ],
  "images": [
    {
      "uri": "textures/fan_material_baseColor.png"
    },
    {
      "uri": "textures/fan_material_metallicRoughness.png"
    },
    {
      "uri": "textures/fan_material_normal.png"
    }
  ],
  "materials": [
    {
      "name": "fan_material",
      "normalTexture": {
        "index": 2
      },
      "occlusionTexture": {
        "index": 1
      },
      "pbrMetallicRoughness": {
        "baseColorTexture": {
          "index": 0
        },
        "metallicRoughnessTexture": {
          "index": 1
        }
      }
    }
  ],
  "meshes": [
    {
      "name": "eletric fan_fan material_0",
      "primitives": [
        {
          "attributes": {
            "JOINTS_0": 6,
            "NORMAL": 1,
            "POSITION": 0,
            "TANGENT": 2,
            "TEXCOORD_0": 3,
            "WEIGHTS_0": 7
          },
          "indices": 4,
          "material": 0,
          "mode": 4
        }
      ]
    }
  ],
  "nodes": [
    {
      "children": [
        1
      ],
      "matrix": [
        1.0,
        0.0,
        0.0,
        0.0,
        0.0,
        2.220446049250313e-16,
        -1.0,
        0.0,
        0.0,
        1.0,
        2.220446049250313e-16,
        0.0,
        0.0,
        0.0,
        0.0,
        1.0
      ],
      "name": "Sketchfab_model"
    },
    {
      "children": [
        2
      ],
      "matrix": [
        1.0,
        0.0,
        0.0,
        0.0,
        0.0,
        0.0,
        1.0,
        0.0,
        0.0,
        -1.0,
        0.0,
        0.0,
        0.0,
        0.0,
        0.0,
        1.0
      ],
      "name": "0a20d622ef3d4820a916482dca9888a2.fbx"
    },
    {
      "children": [
        3
      ],
      "name": "Object_2"
    },
    {
      "children": [
        4,
        14
      ],
      "name": "RootNode"
    },
    {
      "children": [
        5
      ],
      "name": "Armature",
      "rotation": [
        -0.7071068286895752,
        0.0,
        0.0,
        0.7071067094802856
      ],
      "scale": [
        100.0,
        100.0,
        100.0
      ]
    },
    {
      "children": [
        6,
        13,
        12
      ],
      "name": "Object_5"
    },
    {
      "children": [
        7
      ],
      "name": "_rootJoint"
    },
    {
      "children": [
        8,
        10,
        11
      ],
      "name": "base_00",
      "rotation": [
        0.7071068286895752,
        0.0,
        0.0,
        0.7071067094802856
      ]
    },
    {
      "children": [
        9
      ],
      "name": "engine_01",
      "translation": [
        2.793967834868738e-10,
        0.5865400433540344,
        -0.013959795236587524
      ]
    },
    {
      "name": "blades_02",
      "rotation": [
        0.7071068286895752,
        -1.1520234721729139e-07,
        -1.1520233300643667e-07,
        0.7071067094802856
      ],
      "translation": [
        1.895823587005907e-08,
        0.08069056272506714,
        0.05861739069223404
      ]
    },
    {
      "name": "button off_03",
      "rotation": [
        0.0,
        1.1920927533992653e-07,
        0.0,
        1.0
      ],
      "scale": [
        1.0,
        0.9999999403953552,
        1.0
      ],
      "translation": [
        -0.03750000149011612,
        0.03462183475494385,
        0.10278468579053879
      ]
    },
    {
      "name": "button on_04",
      "rotation": [
        0.0,
        1.1920927533992653e-07,
        0.0,
        1.0
      ],
      "scale": [
        1.0,
        0.9999999403953552,
        1.0
      ],
      "translation": [
        0.012499995529651642,
        0.03462183475494385,
        0.10278468579053879
      ]
    },
    {
      "matrix": [
        100.0,
        0.0,
        0.0,
        0.0,
        0.0,
        6.123233995736766e-15,
        -100.0,
        0.0,
        0.0,
        100.0,
        6.123233995736766e-15,
        0.0,
        0.0,
        0.0,
        0.0,
        1.0
      ],
      "name": "Object_12"
    },
    {
      "mesh": 0,
      "name": "Object_13",
      "skin": 0
    },
    {
      "name": "eletric fan",
      "rotation": [
        -0.7071068286895752,
        0.0,
        0.0,
        0.7071067094802856
      ],
      "scale": [
        100.0,
        100.0,
        100.0
      ]
    }
  ],
  "samplers": [
    {
      "magFilter": 9729,
      "minFilter": 9987,
      "wrapS": 10497,
      "wrapT": 10497
    }
  ],
  "scene": 0,
  "scenes": [
    {
      "name": "Sketchfab_Scene",
      "nodes": [
        0
      ]
    }
  ],
  "skins": [
    {
      "inverseBindMatrices": 5,
      "joints": [
        6,
        7,
        8,
        9,
        10,
        11
      ],
      "skeleton": 6
    }
  ],
  "textures": [
    {
      "sampler": 0,
      "source": 0
    },
    {
      "sampler": 0,
      "source": 1
    },
    {
      "sampler": 0,
      "source": 2
    }
  ]
}
