{
  "accessors": [
    {
      "bufferView": 2,
      "componentType": 5126,
      "count": 526,
      "max": [
        0.9807852506637573,
        0.9807852506637573,
        1.0
      ],
      "min": [
        -0.9807848334312439,
        -0.9807853698730469,
        0.18928512930870056
      ],
      "type": "VEC3"
    },
    {
      "bufferView": 2,
      "byteOffset": 6312,
      "componentType": 5126,
      "count": 526,
      "max": [
        0.9248512387275696,
        0.9248512387275696,
        1.0
      ],
      "min": [
        -0.9248512387275696,
        -0.9248512387275696,
        -1.0
      ],
      "type": "VEC3"
    },
    {
      "bufferView": 1,
      "componentType": 5126,
      "count": 526,
      "max": [
        1.000000238418579,
        1.0
      ],
      "min": [
        0.0,
        0.5625
      ],
      "type": "VEC2"
    },
    {
      "bufferView": 0,
      "componentType": 5125,
      "count": 2688,
      "type": "SCALAR"
    },
    {
      "bufferView": 2,
      "byteOffset": 12624,
      "componentType": 5126,
      "count": 130,
      "max": [
        1.0,
        1.0,
        66.43974304199219
      ],
      "min": [
        -1.0,
        -1.0,
        -1.0
      ],
      "type": "VEC3"
    },
    {
      "bufferView": 2,
      "byteOffset": 14184,
      "componentType": 5126,
      "count": 130,
      "max": [
        0.7278809547424316,
        0.7278809547424316,
        0.6857035160064697
      ],
      "min": [
        -0.7278809547424316,
        -0.7278809547424316,
        -0.6857142448425293
      ],
      "type": "VEC3"
    },
    {
      "bufferView": 1,
      "byteOffset": 4208,
      "componentType": 5126,
      "count": 130,
      "max": [
        1.0,
        1.0
      ],
      "min": [
        0.0,
        0.01000000536441803
      ],
      "type": "VEC2"
    },
    {
      "bufferView": 0,
      "byteOffset": 10752,
      "componentType": 5125,
      "count": 372,
      "type": "SCALAR"
    },
    {
      "bufferView": 2,
      "byteOffset": 15744,
      "componentType": 5126,
      "count": 526,
      "max": [
        0.9807852506637573,
        0.9807852506637573,
        1.0
      ],
      "min": [
        -0.9807848334312439,
        -0.9807853698730469,
        0.18928512930870056
      ],
      "type": "VEC3"
    },
    {
      "bufferView": 2,
      "byteOffset": 22056,
      "componentType": 5126,
      "count": 526,
      "max": [
        0.9248512387275696,
        0.9248512387275696,
        1.0
      ],
      "min": [
        -0.9248512387275696,
        -0.9248512387275696,
        -1.0
      ],
      "type": "VEC3"
    },
    {
      "bufferView": 1,
      "byteOffset": 5248,
      "componentType": 5126,
      "count": 526,
      "max": [
        1.000000238418579,
        1.0
      ],
      "min": [
        0.0,
        0.5625
      ],
      "type": "VEC2"
    },
    {
      "bufferView": 0,
      "byteOffset": 12240,
      "componentType": 5125,
      "count": 2688,
      "type": "SCALAR"
    },
    {
      "bufferView": 2,
      "byteOffset": 28368,
      "componentType": 5126,
      "count": 559,
      "max": [
        1.000000238418579,
        1.0,
        1.0
      ],
      "min": [
        -0.9999998211860657,
        -1.0000003576278687,
        -1.0
      ],
      "type": "VEC3"
    },
    {
      "bufferView": 2,
      "byteOffset": 35076,
      "componentType": 5126,
      "count": 559,
      "max": [
        1.0,
        1.0,
        1.0
      ],
      "min": [
        -1.0,
        -1.0,
        -1.0
      ],
      "type": "VEC3"
    },
    {
      "bufferView": 1,
      "byteOffset": 9456,
      "componentType": 5126,
      "count": 559,
      "max": [
        1.000000238418579,
        1.0
      ],
      "min": [
        0.0,
        0.0
      ],
      "type": "VEC2"
    },
    {
      "bufferView": 0,
      "byteOffset": 22992,
      "componentType": 5125,
      "count": 2880,
      "type": "SCALAR"
    },
    {
      "bufferView": 2,
      "byteOffset": 41784,
      "componentType": 5126,
      "count": 526,
      "max": [
        0.8446733355522156,
        0.8446730375289917,
        1.0
      ],
      "min": [
        -0.8446729779243469,
        -0.8446736931800842,
        -0.609289288520813
      ],
      "type": "VEC3"
    },
    {
      "bufferView": 2,
      "byteOffset": 48096,
      "componentType": 5126,
      "count": 526,
      "max": [
        0.9916443228721619,
        0.9916443228721619,
        1.0
      ],
      "min": [
        -0.9916443228721619,
        -0.9916443228721619,
        -1.0
      ],
      "type": "VEC3"
    },
    {
      "bufferView": 1,
      "byteOffset": 13928,
      "componentType": 5126,
      "count": 526,
      "max": [
        1.000000238418579,
        1.0
      ],
      "min": [
        0.0,
        0.5625
      ],
      "type": "VEC2"
    },
    {
      "bufferView": 0,
      "byteOffset": 34512,
      "componentType": 5125,
      "count": 2688,
      "type": "SCALAR"
    }
  ],
  "asset": {
    "extras": {
      "author": "Lee.Shaw (https://sketchfab.com/Lee.Shaw)",
      "license": "CC-BY-4.0 (http://creativecommons.org/licenses/by/4.0/)",
      "source": "https://sketchfab.com/3d-models/hanging-light-fnaf-1987-798a7edb100f43f98f01128c4aacee61",
      "title": "Hanging Light FNAF 1987"
    },
    "generator": "Sketchfab-12.68.0",
    "version": "2.0"
  },
  "bufferViews": [
    {
      "buffer": 0,
      "byteLength": 45264,
      "name": "floatBufferViews",
      "target": 34963
    },
    {
      "buffer": 0,
      "byteLength": 18136,
      "byteOffset": 45264,
      "byteStride": 8,
      "name": "floatBufferViews",
      "target": 34962
    },
    {
      "buffer": 0,
      "byteLength": 54408,
      "byteOffset": 63400,
      "byteStride": 12,
      "name": "floatBufferViews",
      "target": 34962
    }
  ],
  "buffers": [
    {
      "byteLength": 117808,
      "uri": "light_scene.bin"
    }
  ],
  "materials": [
    {
      "doubleSided": true,
      "name": "Sphere.001__0",
      "pbrMetallicRoughness": {
        "metallicFactor": 0.0,
        "roughnessFactor": 0.6
      }
    },
    {
      "doubleSided": true,
      "name": "Material.001",
      "pbrMetallicRoughness": {
        "baseColorFactor": [
          0.0578025,
          0.0578025,
          0.0578025,
          1.0
        ],
        "metallicFactor": 0.0,
        "roughnessFactor": 0.9870749680730568
      }
    },
    {
      "doubleSided": true,
      "name": "Material.002",
      "pbrMetallicRoughness": {
        "baseColorFactor": [
          0.0420276,
          0.0420276,
          0.0420276,
          1.0
        ],
        "metallicFactor": 0.0,
        "roughnessFactor": 0.990602342946883
      }
    }
  ],
  "meshes": [
    {
      "name": "Sphere_Material.001_0",
      "primitives": [
        {
          "attributes": {
            "NORMAL": 1,
            "POSITION": 0,
            "TEXCOORD_0": 2
          },
          "indices": 3,
          "material": 1,
          "mode": 4
        }
      ]
    },
    {
      "name": "Cylinder_Material.002_0",
      "primitives": [
        {
          "attributes": {
            "NORMAL": 5,
            "POSITION": 4,
            "TEXCOORD_0": 6
          },
          "indices": 7,
          "material": 2,
          "mode": 4
        }
      ]
    },
    {
      "name": "Sphere.001__0",
      "primitives": [
        {
          "attributes": {
            "NORMAL": 9,
            "POSITION": 8,
            "TEXCOORD_0": 10
          },
          "indices": 11,
          "material": 0,
          "mode": 4
        }
      ]
    },
    {
      "name": "Sphere.002__0",
      "primitives": [
        {
          "attributes": {
            "NORMAL": 13,
            "POSITION": 12,
            "TEXCOORD_0": 14
          },
          "indices": 15,
          "material": 0,
          "mode": 4
        }
      ]
    },
    {
      "name": "Sphere.003_Material.001_0",
      "primitives": [
        {
          "attributes": {
            "NORMAL": 17,
            "POSITION": 16,
            "TEXCOORD_0": 18
          },
          "indices": 19,
          "material": 1,
          "mode": 4
        }
      ]
    }
  ],
  "nodes": [
    {
      "children": [
        1
      ],
      "matrix": [
        1.0,
        0.0,
        0.0,
        0.0,
        0.0,
        2.220446049250313e-16,
        -1.0,
        0.0,
        0.0,
        1.0,
        2.220446049250313e-16,
        0.0,
        0.0,
        0.0,
        0.0,
        1.0
      ],
      "name": "Sketchfab_model"
    },
    {
      "children": [
        2
      ],
      "matrix": [
        1.0,
        0.0,
        0.0,
        0.0,
        0.0,
        0.0,
        1.0,
        0.0,
        0.0,
        -1.0,
        0.0,
        0.0,
        0.0,
        0.0,
        0.0,
        1.0
      ],
      "name": "05f825d1a82a4ec5a143e0d5229452fe.fbx"
    },
    {
      "children": [
        3,
        5,
        7,
        9,
        11
      ],
      "name": "RootNode"
    },
    {
      "children": [
        4
      ],
      "matrix": [
        49.294185638427734,
        0.0,
        0.0,
        0.0,
        0.0,
        -8.031042214279705e-06,
        -49.29418563842708,
        0.0,
        0.0,
        49.29418563842708,
        -8.031042214279705e-06,
        0.0,
        0.0,
        -4.148721694946289,
        0.0,
        1.0
      ],
      "name": "Sphere"
    },
    {
      "mesh": 0,
      "name": "Sphere_Material.001_0"
    },
    {
      "children": [
        6
      ],
      "matrix": [
        1.5074748992919922,
        0.0,
        0.0,
        0.0,
        -0.0,
        -2.45598834758784e-07,
        -1.5074748992919722,
        0.0,
        0.0,
        1.5074748992919722,
        -2.45598834758784e-07,
        0.0,
        -0.36637309193611145,
        41.552032470703125,
        0.3074292838573456,
        1.0
      ],
      "name": "Cylinder"
    },
    {
      "mesh": 1,
      "name": "Cylinder_Material.002_0"
    },
    {
      "children": [
        8
      ],
      "matrix": [
        48.1517448425293,
        0.0,
        0.0,
        0.0,
        0.0,
        -7.844914983646987e-06,
        -48.15174484252866,
        0.0,
        0.0,
        34.14086914062455,
        -5.5622535954182365e-06,
        0.0,
        0.0,
        1.126343011856079,
        0.0,
        1.0
      ],
      "name": "Sphere.001"
    },
    {
      "mesh": 2,
      "name": "Sphere.001__0"
    },
    {
      "children": [
        10
      ],
      "matrix": [
        -5.230993270874023,
        -0.0,
        -0.0,
        -0.0,
        -0.0,
        8.522369775848943e-07,
        5.230993270873954,
        -0.0,
        -0.0,
        -12.05280590057357,
        1.9636513258993464e-06,
        -0.0,
        0.0,
        29.578060150146484,
        0.0,
        1.0
      ],
      "name": "Sphere.002"
    },
    {
      "mesh": 3,
      "name": "Sphere.002__0"
    },
    {
      "children": [
        12
      ],
      "matrix": [
        9.702354431152344,
        0.0,
        0.0,
        0.0,
        0.0,
        -2.7373249564855866e-06,
        9.702354431151958,
        0.0,
        0.0,
        -9.702354431151958,
        -2.7373249564855866e-06,
        0.0,
        0.0,
        137.9687042236328,
        0.29427647590637207,
        1.0
      ],
      "name": "Sphere.003"
    },
    {
      "mesh": 4,
      "name": "Sphere.003_Material.001_0"
    }
  ],
  "scene": 0,
  "scenes": [
    {
      "name": "Sketchfab_Scene",
      "nodes": [
        0
      ]
    }
  ]
}
